<svg height="1227" width="1833" viewBox="1370 270 1833 1227" style="background-color:transparent;" preserveAspectRatio="xMinYMin meet" xmlns:xlink="http://www.w3.org/1999/xlink" xmlns="http://www.w3.org/2000/svg"><defs><style type="text/css">.svg-txt-center tspan {text-anchor: middle;}.svg-txt-right tspan {text-anchor: end;}</style></defs><g transform="translate(0,0)"><g transform="matrix(1,0,0,1,1702,473)"><path style="fill:rgb(204,51,0);stroke:rgb(178,44,0);stroke-width:3.0;;" d="m43.116627539999996,3.1236c41.330394,-5.9157944 138.60312199999998,-3.4079464 155.802906,8.7125336c17.198809599999997,12.1206624 -26.3060392,25.376704 -75.87815199999999,26.892751999999998c-49.574223999999994,1.51480464 -102.352194,-1.5597024 -118.37051799999999,-14.0149168c-13.150502399999999,-10.2271528 4.0493546799999995,-16.6668 38.445966999999996,-21.590384z"/></g><text style="font-weight:bold; font-size: 12px; text-anchor: middle; font-family: arial,helvetica,sans-serif; fill: #ffffff;" class="svg-txt-center" y="497" x="1803">SemicategoryComponent</text></g><g transform="translate(0,0)"><g transform="matrix(1,0,0,1,1556,280)"><path style="fill:none;stroke:#333333;stroke-width:3.0;;" d="m26.33725032,3.1236c25.246152,-5.9157944 84.663976,-3.4079464 95.170248,8.7125336c10.5056768,12.1206624 -16.068713600000002,25.376704 -46.349216,26.892751999999998c-30.281792,1.51480464 -62.520552,-1.5597024 -72.305144,-14.0149168c-8.0328192,-10.2271528 2.47349744,-16.6668 23.484236,-21.590384z"/></g><text style="font-weight:bold; font-size: 12px; text-anchor: middle; font-family: arial,helvetica,sans-serif; fill: #333333;" class="svg-txt-center" y="304" x="1618">Composition</text></g><g transform="translate(0,0)"><g transform="matrix(1,0,0,1,1535,845)"><path style="fill:rgb(204,51,0);stroke:rgb(178,44,0);stroke-width:3.0;;" d="m34.62074034,3.1236c33.186474,-5.9157944 111.29216199999999,-3.4079464 125.10282600000001,8.7125336c13.809881599999999,12.1206624 -21.1225832,25.376704 -60.92679199999999,26.892751999999998c-39.805904,1.51480464 -82.184274,-1.5597024 -95.046278,-14.0149168c-10.559270399999999,-10.2271528 3.2514522799999996,-16.6668 30.870407,-21.590384z"/></g><text style="font-weight:bold; font-size: 12px; text-anchor: middle; font-family: arial,helvetica,sans-serif; fill: #ffffff;" class="svg-txt-center" y="869" x="1616">MonoidComponent</text></g><g transform="translate(0,0)"><path style="fill:none;stroke:#333333;stroke-width:2;;" d="M1575,668 C1575,754.5 1616,754.5  1616,841"/><polyline style="fill:#ffffff;stroke:#333333;stroke-width:2;fill-opacity:0;" points="1605,823 1616,841 1625,823"/><text style="font-weight:Normal; font-size: 12px; text-anchor: middle; font-family: sans-serif; fill: #333333;" class="" y="824" x="1626"/><text style="font-weight:Normal; font-size: 12px; text-anchor: start; font-family: sans-serif; fill: #333333;" class="" y="754" x="1595"/><text style="font-weight:Normal; font-size: 12px; text-anchor: middle; font-family: sans-serif; fill: #333333;" class="" y="677" x="1592"/></g><g transform="translate(0,0)"><g transform="matrix(1,0,0,1,1855,812)"><path style="fill:rgb(204,51,0);stroke:rgb(178,44,0);stroke-width:3.0;;" d="m36.95710932,3.1236c35.426052,-5.9157944 118.802676,-3.4079464 133.54534800000002,8.7125336c14.7418368,12.1206624 -22.5480336,25.376704 -65.038416,26.892751999999998c-42.492192,1.51480464 -87.730452,-1.5597024 -101.460444,-14.0149168c-11.2718592,-10.2271528 3.47087544,-16.6668 32.953686,-21.590384z"/></g><text style="font-weight:bold; font-size: 12px; text-anchor: middle; font-family: arial,helvetica,sans-serif; fill: #ffffff;" class="svg-txt-center" y="836" x="1942">GroupoidComponent</text></g><g transform="translate(0,0)"><path style="fill:none;stroke:#333333;stroke-width:2;;" d="M1818,671 C1717,671 1616,756  1616,841"/><polyline style="fill:#ffffff;stroke:#333333;stroke-width:2;fill-opacity:0;" points="1607,823 1616,841 1626,824"/><text style="font-weight:Normal; font-size: 12px; text-anchor: middle; font-family: sans-serif; fill: #333333;" class="" y="843" x="1637"/><text style="font-weight:Normal; font-size: 12px; text-anchor: start; font-family: sans-serif; fill: #333333;" class="" y="724" x="1679"/><text style="font-weight:Normal; font-size: 12px; text-anchor: middle; font-family: sans-serif; fill: #333333;" class="" y="691" x="1817"/></g><g transform="translate(0,0)"><g transform="matrix(1,0,0,1,1755,296)"><path style="fill:none;stroke:#333333;stroke-width:3.0;;" d="m24.85047006,3.1236c23.820966,-5.9157944 79.884558,-3.4079464 89.797734,8.7125336c9.912614399999999,12.1206624 -15.1616088,25.376704 -43.732727999999994,26.892751999999998c-28.572335999999996,1.51480464 -58.991166,-1.5597024 -68.223402,-14.0149168c-7.5793536,-10.2271528 2.3338645199999997,-16.6668 22.158513,-21.590384z"/></g><text style="font-weight:bold; font-size: 12px; text-anchor: middle; font-family: arial,helvetica,sans-serif; fill: #333333;" class="svg-txt-center" y="320" x="1813">Associative</text></g><g transform="translate(0,0)"><g transform="matrix(1,0,0,1,2503,900)"><path style="fill:rgb(204,51,0);stroke:rgb(178,44,0);stroke-width:3.0;;" d="m45.02820216,3.1236c43.162776,-5.9157944 144.748088,-3.4079464 162.71042400000002,8.7125336c17.9613184,12.1206624 -27.4723168,25.376704 -79.242208,26.892751999999998c-51.772096000000005,1.51480464 -106.889976,-1.5597024 -123.61847200000001,-14.0149168c-13.7335296,-10.2271528 4.2288827200000005,-16.6668 40.150468000000004,-21.590384z"/></g><text style="font-weight:bold; font-size: 12px; text-anchor: middle; font-family: arial,helvetica,sans-serif; fill: #ffffff;" class="svg-txt-center" y="924" x="2609">AdditiveMonoidComponent</text></g><g transform="translate(0,0)"><path style="fill:none;stroke:#333333;stroke-width:2;;" d="M1996,671 C2302.5,671 2609,783.5  2609,896"/><polyline style="fill:#ffffff;stroke:#333333;stroke-width:2;fill-opacity:0;" points="2596,880 2609,896 2616,877"/><text style="font-weight:Normal; font-size: 12px; text-anchor: middle; font-family: sans-serif; fill: #333333;" class="" y="878" x="2598"/><text style="font-weight:Normal; font-size: 12px; text-anchor: start; font-family: sans-serif; fill: #333333;" class="" y="741" x="2417"/><text style="font-weight:Normal; font-size: 12px; text-anchor: middle; font-family: sans-serif; fill: #333333;" class="" y="660" x="2014"/></g><g transform="translate(0,0)"><g transform="matrix(1,0,0,1,2439,562)"><path style="fill:none;stroke:#333333;stroke-width:3.0;;" d="m30.797591099999998,3.1236c29.52171,-5.9157944 99.00223,-3.4079464 111.28779,8.7125336c12.284863999999999,12.1206624 -18.790028,25.376704 -54.198679999999996,26.892751999999998c-35.41016,1.51480464 -73.10871,-1.5597024 -84.55037,-14.0149168c-9.393216,-10.2271528 2.8923962,-16.6668 27.461405,-21.590384z"/></g><text style="font-weight:bold; font-size: 12px; text-anchor: middle; font-family: arial,helvetica,sans-serif; fill: #333333;" class="svg-txt-center" y="586" x="2511">AdditiveIdentity</text></g><g transform="translate(0,0)"><path style="fill:none;stroke:#333333;stroke-width:2;;" d="M2511,602 C2511,749 2609,749  2609,896"/><polyline style="fill:#ffffff;stroke:#333333;stroke-width:2;fill-opacity:0;" points="2598,879 2609,896 2618,878"/><text style="font-weight:Normal; font-size: 12px; text-anchor: middle; font-family: sans-serif; fill: #333333;" class="" y="878" x="2617"/><text style="font-weight:Normal; font-size: 12px; text-anchor: start; font-family: sans-serif; fill: #333333;" class="" y="749" x="2560"/><text style="font-weight:Normal; font-size: 12px; text-anchor: middle; font-family: sans-serif; fill: #333333;" class="" y="610" x="2529"/></g><g transform="translate(0,0)"><g transform="matrix(1,0,0,1,2712,688)"><path style="fill:none;stroke:#333333;stroke-width:3.0;;" d="m33.55875444,3.1236c32.168484,-5.9157944 107.878292,-3.4079464 121.26531600000001,8.7125336c13.3862656,12.1206624 -20.474651200000004,25.376704 -59.057872,26.892751999999998c-38.584864,1.51480464 -79.663284,-1.5597024 -92.13074800000001,-14.0149168c-10.2353664,-10.2271528 3.1517144800000003,-16.6668 29.923462,-21.590384z"/></g><text style="font-weight:bold; font-size: 12px; text-anchor: middle; font-family: arial,helvetica,sans-serif; fill: #333333;" class="svg-txt-center" y="712" x="2791">AdditiveOperation</text></g><g transform="translate(0,0)"><path style="fill:none;stroke:#333333;stroke-width:2;;" d="M1907,692 C1907,750 1942,750  1942,808"/><polyline style="fill:#ffffff;stroke:#333333;stroke-width:2;fill-opacity:0;" points="1931,790 1942,808 1951,790"/><text style="font-weight:Normal; font-size: 12px; text-anchor: middle; font-family: sans-serif; fill: #333333;" class="" y="790" x="1951"/><text style="font-weight:Normal; font-size: 12px; text-anchor: start; font-family: sans-serif; fill: #333333;" class="" y="750" x="1924"/><text style="font-weight:Normal; font-size: 12px; text-anchor: middle; font-family: sans-serif; fill: #333333;" class="" y="700" x="1924"/></g><g transform="translate(0,0)"><path style="fill:none;stroke:#333333;stroke-width:2;;" d="M2791,728 C2791,823.5 2755,919  2719,919"/><polyline style="fill:#ffffff;stroke:#333333;stroke-width:2;fill-opacity:0;" points="2734,906 2719,919 2737,926"/><text style="font-weight:Normal; font-size: 12px; text-anchor: middle; font-family: sans-serif; fill: #333333;" class="" y="909" x="2735"/><text style="font-weight:Normal; font-size: 12px; text-anchor: start; font-family: sans-serif; fill: #333333;" class="" y="859" x="2768"/><text style="font-weight:Normal; font-size: 12px; text-anchor: middle; font-family: sans-serif; fill: #333333;" class="" y="746" x="2799"/></g><g transform="translate(0,0)"><path style="fill:none;stroke:#333333;stroke-width:2;;" d="M1614,320 C1614,394.5 1750,394.5  1750,469"/><polyline style="fill:#ffffff;stroke:#333333;stroke-width:2;fill-opacity:0;" points="1738,452 1750,469 1758,450"/><text style="font-weight:Normal; font-size: 12px; text-anchor: middle; font-family: sans-serif; fill: #333333;" class="" y="449" x="1750"/><text style="font-weight:Normal; font-size: 12px; text-anchor: start; font-family: sans-serif; fill: #333333;" class="" y="394" x="1682"/><text style="font-weight:Normal; font-size: 12px; text-anchor: middle; font-family: sans-serif; fill: #333333;" class="" y="319" x="1634"/></g><g transform="translate(0,0)"><g transform="matrix(1,0,0,1,2034,1010)"><path style="fill:rgb(204,51,0);stroke:rgb(178,44,0);stroke-width:3.0;;" d="m51.61251474,3.1236c49.474314,-5.9157944 165.914082,-3.4079464 186.50298600000002,8.7125336c20.5877376,12.1206624 -31.489495200000004,25.376704 -90.82951200000001,26.892751999999998c-59.342544000000004,1.51480464 -122.520114,-1.5597024 -141.694758,-14.0149168c-15.741734400000002,-10.2271528 4.84725708,-16.6668 46.021527000000006,-21.590384z"/></g><text style="font-weight:bold; font-size: 12px; text-anchor: middle; font-family: arial,helvetica,sans-serif; fill: #ffffff;" class="svg-txt-center" y="1034" x="2155">MultiplicativeMonoidComponent</text></g><g transform="translate(0,0)"><g transform="matrix(1,0,0,1,1989,727)"><path style="fill:none;stroke:#333333;stroke-width:3.0;;" d="m19.96533492,3.1236c19.138212,-5.9157944 64.180756,-3.4079464 72.145188,8.7125336c7.963980799999999,12.1206624 -12.1811216,25.376704 -35.135695999999996,26.892751999999998c-22.955551999999997,1.51480464 -47.394612,-1.5597024 -54.811963999999996,-14.0149168c-6.0893952,-10.2271528 1.87507064,-16.6668 17.802566,-21.590384z"/></g><text style="font-weight:bold; font-size: 12px; text-anchor: middle; font-family: arial,helvetica,sans-serif; fill: #333333;" class="svg-txt-center" y="751" x="2036">Inverse</text></g><g transform="translate(0,0)"><g transform="matrix(1,0,0,1,2172,846)"><path style="fill:none;stroke:#333333;stroke-width:3.0;;" d="m37.38190368,3.1236c35.833248,-5.9157944 120.168224,-3.4079464 135.080352,8.7125336c14.9112832,12.1206624 -22.807206400000002,25.376704 -65.785984,26.892751999999998c-42.980608,1.51480464 -88.738848,-1.5597024 -102.626656,-14.0149168c-11.4014208,-10.2271528 3.51077056,-16.6668 33.332464,-21.590384z"/></g><text style="font-weight:bold; font-size: 12px; text-anchor: middle; font-family: arial,helvetica,sans-serif; fill: #333333;" class="svg-txt-center" y="870" x="2260">MultiplicativeIdentity</text></g><g transform="translate(0,0)"><path style="fill:none;stroke:#333333;stroke-width:2;;" d="M1813,336 C1813,402.5 1803,402.5  1803,469"/><polyline style="fill:#ffffff;stroke:#333333;stroke-width:2;fill-opacity:0;" points="1793,451 1803,469 1813,451"/><text style="font-weight:Normal; font-size: 12px; text-anchor: middle; font-family: sans-serif; fill: #333333;" class="" y="456" x="1818"/><text style="font-weight:Normal; font-size: 12px; text-anchor: start; font-family: sans-serif; fill: #333333;" class="" y="402" x="1808"/><text style="font-weight:Normal; font-size: 12px; text-anchor: middle; font-family: sans-serif; fill: #333333;" class="" y="350" x="1826"/></g><g transform="translate(0,0)"><path style="fill:none;stroke:#333333;stroke-width:2;;" d="M2260,886 C2260,946 2155,946  2155,1006"/><polyline style="fill:#ffffff;stroke:#333333;stroke-width:2;fill-opacity:0;" points="2146,987 2155,1006 2166,989"/><text style="font-weight:Normal; font-size: 12px; text-anchor: middle; font-family: sans-serif; fill: #333333;" class="" y="1004" x="2176"/><text style="font-weight:Normal; font-size: 12px; text-anchor: start; font-family: sans-serif; fill: #333333;" class="" y="946" x="2207"/><text style="font-weight:Normal; font-size: 12px; text-anchor: middle; font-family: sans-serif; fill: #333333;" class="" y="905" x="2262"/></g><g transform="translate(0,0)"><path style="fill:none;stroke:#333333;stroke-width:2;;" d="M1996,671 C2075.5,671 2155,838.5  2155,1006"/><polyline style="fill:#ffffff;stroke:#333333;stroke-width:2;fill-opacity:0;" points="2144,988 2155,1006 2164,988"/><text style="font-weight:Normal; font-size: 12px; text-anchor: middle; font-family: sans-serif; fill: #333333;" class="" y="987" x="2161"/><text style="font-weight:Normal; font-size: 12px; text-anchor: start; font-family: sans-serif; fill: #333333;" class="" y="775" x="2105"/><text style="font-weight:Normal; font-size: 12px; text-anchor: middle; font-family: sans-serif; fill: #333333;" class="" y="676" x="2014"/></g><g transform="translate(0,0)"><g transform="matrix(1,0,0,1,2270,953)"><path style="fill:none;stroke:#333333;stroke-width:3.0;;" d="m40.14306702,3.1236c38.480022,-5.9157944 129.044286,-3.4079464 145.05787800000002,8.7125336c16.0126848,12.1206624 -24.4918296,25.376704 -70.64517599999999,26.892751999999998c-46.155311999999995,1.51480464 -95.29342199999999,-1.5597024 -110.207034,-14.0149168c-12.2435712,-10.2271528 3.7700888399999997,-16.6668 35.794520999999996,-21.590384z"/></g><text style="font-weight:bold; font-size: 12px; text-anchor: middle; font-family: arial,helvetica,sans-serif; fill: #333333;" class="svg-txt-center" y="977" x="2364">MultiplicativeOperation</text></g><g transform="translate(0,0)"><path style="fill:none;stroke:#333333;stroke-width:2;;" d="M2268,972 C2211.5,972 2155,989  2155,1006"/><polyline style="fill:#ffffff;stroke:#333333;stroke-width:2;fill-opacity:0;" points="2147,987 2155,1006 2167,990"/><text style="font-weight:Normal; font-size: 12px; text-anchor: middle; font-family: sans-serif; fill: #333333;" class="" y="1017" x="2174"/><text style="font-weight:Normal; font-size: 12px; text-anchor: start; font-family: sans-serif; fill: #333333;" class="" y="982" x="2190"/><text style="font-weight:Normal; font-size: 12px; text-anchor: middle; font-family: sans-serif; fill: #333333;" class="" y="990" x="2259"/></g><g transform="translate(0,0)"><g transform="matrix(1,0,0,1,1820,652)"><path style="fill:rgb(204,51,0);stroke:rgb(178,44,0);stroke-width:3.0;;" d="m36.95710932,3.1236c35.426052,-5.9157944 118.802676,-3.4079464 133.54534800000002,8.7125336c14.7418368,12.1206624 -22.5480336,25.376704 -65.038416,26.892751999999998c-42.492192,1.51480464 -87.730452,-1.5597024 -101.460444,-14.0149168c-11.2718592,-10.2271528 3.47087544,-16.6668 32.953686,-21.590384z"/></g><text style="font-weight:bold; font-size: 12px; text-anchor: middle; font-family: arial,helvetica,sans-serif; fill: #ffffff;" class="svg-txt-center" y="676" x="1907">CategoryComponent</text></g><g transform="translate(0,0)"><path style="fill:none;stroke:#333333;stroke-width:2;;" d="M2036,767 C2036,787.5 1985,787.5  1985,808"/><polyline style="fill:#ffffff;stroke:#333333;stroke-width:2;fill-opacity:0;" points="1977,789 1985,808 1997,792"/><text style="font-weight:Normal; font-size: 12px; text-anchor: middle; font-family: sans-serif; fill: #333333;" class="" y="810" x="2006"/><text style="font-weight:Normal; font-size: 12px; text-anchor: start; font-family: sans-serif; fill: #333333;" class="" y="787" x="2010"/><text style="font-weight:Normal; font-size: 12px; text-anchor: middle; font-family: sans-serif; fill: #333333;" class="" y="787" x="2035"/></g><g transform="translate(0,0)"><g transform="matrix(1,0,0,1,1802,1068)"><path style="fill:rgb(204,51,0);stroke:rgb(178,44,0);stroke-width:3.0;;" d="m33.13396008,3.1236c31.761288,-5.9157944 106.512744,-3.4079464 119.73031200000001,8.7125336c13.2168192,12.1206624 -20.215478400000002,25.376704 -58.310304,26.892751999999998c-38.096448,1.51480464 -78.654888,-1.5597024 -90.96453600000001,-14.0149168c-10.105804800000001,-10.2271528 3.11181936,-16.6668 29.544684,-21.590384z"/></g><text style="font-weight:bold; font-size: 12px; text-anchor: middle; font-family: arial,helvetica,sans-serif; fill: #ffffff;" class="svg-txt-center" y="1092" x="1880">GroupComponent</text></g><g transform="translate(0,0)"><path style="fill:none;stroke:#333333;stroke-width:2;;" d="M1942,852 C1942,958 1881,958  1881,1064"/><polyline style="fill:#ffffff;stroke:#333333;stroke-width:2;fill-opacity:0;" points="1871,1046 1881,1064 1891,1046"/><text style="font-weight:Normal; font-size: 12px; text-anchor: middle; font-family: sans-serif; fill: #333333;" class="" y="1054" x="1899"/><text style="font-weight:Normal; font-size: 12px; text-anchor: start; font-family: sans-serif; fill: #333333;" class="" y="958" x="1911"/><text style="font-weight:Normal; font-size: 12px; text-anchor: middle; font-family: sans-serif; fill: #333333;" class="" y="869" x="1953"/></g><g transform="translate(0,0)"><path style="fill:none;stroke:#333333;stroke-width:2;;" d="M1616,885 C1616,974.5 1880,974.5  1880,1064"/><polyline style="fill:#ffffff;stroke:#333333;stroke-width:2;fill-opacity:0;" points="1867,1048 1880,1064 1887,1045"/><text style="font-weight:Normal; font-size: 12px; text-anchor: middle; font-family: sans-serif; fill: #333333;" class="" y="1044" x="1874"/><text style="font-weight:Normal; font-size: 12px; text-anchor: start; font-family: sans-serif; fill: #333333;" class="" y="974" x="1748"/><text style="font-weight:Normal; font-size: 12px; text-anchor: middle; font-family: sans-serif; fill: #333333;" class="" y="879" x="1635"/></g><g transform="translate(0,0)"><g transform="matrix(1,0,0,1,2810,1067)"><path style="fill:rgb(204,51,0);stroke:rgb(178,44,0);stroke-width:3.0;;" d="m43.541421899999996,3.1236c41.73759,-5.9157944 139.96866999999997,-3.4079464 157.33791,8.7125336c17.368256,12.1206624 -26.565212,25.376704 -76.62571999999999,26.892751999999998c-50.062639999999995,1.51480464 -103.36059,-1.5597024 -119.53672999999999,-14.0149168c-13.280064,-10.2271528 4.089249799999999,-16.6668 38.824745,-21.590384z"/></g><text style="font-weight:bold; font-size: 12px; text-anchor: middle; font-family: arial,helvetica,sans-serif; fill: #ffffff;" class="svg-txt-center" y="1091" x="2912">AdditiveGroupComponent</text></g><g transform="translate(0,0)"><path style="fill:none;stroke:#333333;stroke-width:2;;" d="M2609,940 C2609,1001.5 2912,1001.5  2912,1063"/><polyline style="fill:#ffffff;stroke:#333333;stroke-width:2;fill-opacity:0;" points="2898,1048 2912,1063 2917,1043"/><text style="font-weight:Normal; font-size: 12px; text-anchor: middle; font-family: sans-serif; fill: #333333;" class="" y="1045" x="2902"/><text style="font-weight:Normal; font-size: 12px; text-anchor: start; font-family: sans-serif; fill: #333333;" class="" y="1001" x="2760"/><text style="font-weight:Normal; font-size: 12px; text-anchor: middle; font-family: sans-serif; fill: #333333;" class="" y="931" x="2626"/></g><g transform="translate(0,0)"><path style="fill:none;stroke:#333333;stroke-width:2;;" d="M1803,513 C1803,580.5 1907,580.5  1907,648"/><polyline style="fill:#ffffff;stroke:#333333;stroke-width:2;fill-opacity:0;" points="1895,631 1907,648 1915,629"/><text style="font-weight:Normal; font-size: 12px; text-anchor: middle; font-family: sans-serif; fill: #333333;" class="" y="628" x="1908"/><text style="font-weight:Normal; font-size: 12px; text-anchor: start; font-family: sans-serif; fill: #333333;" class="" y="580" x="1855"/><text style="font-weight:Normal; font-size: 12px; text-anchor: middle; font-family: sans-serif; fill: #333333;" class="" y="514" x="1822"/></g><g transform="translate(0,0)"><g transform="matrix(1,0,0,1,1483,628)"><path style="fill:rgb(204,51,0);stroke:rgb(178,44,0);stroke-width:3.0;;" d="m39.08108112,3.1236c37.462032,-5.9157944 125.63041600000001,-3.4079464 141.220368,8.7125336c15.5890688,12.1206624 -23.843897600000002,25.376704 -68.776256,26.892751999999998c-44.934272,1.51480464 -92.77243200000001,-1.5597024 -107.291504,-14.0149168c-11.919667200000001,-10.2271528 3.67035104,-16.6668 34.847576000000004,-21.590384z"/></g><text style="font-weight:bold; font-size: 12px; text-anchor: middle; font-family: arial,helvetica,sans-serif; fill: #ffffff;" class="svg-txt-center" y="652" x="1575">SemigroupComponent</text></g><g transform="translate(0,0)"><g transform="matrix(1,0,0,1,3045,911)"><path style="fill:none;stroke:#333333;stroke-width:3.0;;" d="m30.37279674,3.1236c29.114514,-5.9157944 97.636682,-3.4079464 109.752786,8.7125336c12.115417599999999,12.1206624 -18.5308552,25.376704 -53.451111999999995,26.892751999999998c-34.921744,1.51480464 -72.100314,-1.5597024 -83.384158,-14.0149168c-9.2636544,-10.2271528 2.8525010799999997,-16.6668 27.082627,-21.590384z"/></g><text style="font-weight:bold; font-size: 12px; text-anchor: middle; font-family: arial,helvetica,sans-serif; fill: #333333;" class="svg-txt-center" y="935" x="3116">AdditiveInverse</text></g><g transform="translate(0,0)"><path style="fill:none;stroke:#333333;stroke-width:2;;" d="M3116,951 C3116,1007 2912,1007  2912,1063"/><polyline style="fill:#ffffff;stroke:#333333;stroke-width:2;fill-opacity:0;" points="2905,1044 2912,1063 2924,1047"/><text style="font-weight:Normal; font-size: 12px; text-anchor: middle; font-family: sans-serif; fill: #333333;" class="" y="1070" x="2932"/><text style="font-weight:Normal; font-size: 12px; text-anchor: start; font-family: sans-serif; fill: #333333;" class="" y="1007" x="3014"/><text style="font-weight:Normal; font-size: 12px; text-anchor: middle; font-family: sans-serif; fill: #333333;" class="" y="970" x="3111"/></g><g transform="translate(0,0)"><g transform="matrix(1,0,0,1,2050,1148)"><path style="fill:rgb(204,51,0);stroke:rgb(178,44,0);stroke-width:3.0;;" d="m50.12573448,3.1236c48.049127999999996,-5.9157944 161.134664,-3.4079464 181.130472,8.7125336c19.9946752,12.1206624 -30.5823904,25.376704 -88.21302399999999,26.892751999999998c-57.633087999999994,1.51480464 -118.990728,-1.5597024 -137.613016,-14.0149168c-15.288268799999999,-10.2271528 4.70762416,-16.6668 44.695803999999995,-21.590384z"/></g><text style="font-weight:bold; font-size: 12px; text-anchor: middle; font-family: arial,helvetica,sans-serif; fill: #ffffff;" class="svg-txt-center" y="1172" x="2168">MultiplicativeGroupComponent</text></g><g transform="translate(0,0)"><path style="fill:none;stroke:#333333;stroke-width:2;;" d="M2155,1050 C2155,1097 2168,1097  2168,1144"/><polyline style="fill:#ffffff;stroke:#333333;stroke-width:2;fill-opacity:0;" points="2157,1126 2168,1144 2177,1126"/><text style="font-weight:Normal; font-size: 12px; text-anchor: middle; font-family: sans-serif; fill: #333333;" class="" y="1128" x="2179"/><text style="font-weight:Normal; font-size: 12px; text-anchor: start; font-family: sans-serif; fill: #333333;" class="" y="1097" x="2161"/><text style="font-weight:Normal; font-size: 12px; text-anchor: middle; font-family: sans-serif; fill: #333333;" class="" y="1060" x="2170"/></g><g transform="translate(0,0)"><g transform="matrix(1,0,0,1,2317,1036)"><path style="fill:none;stroke:#333333;stroke-width:3.0;;" d="m36.95710932,3.1236c35.426052,-5.9157944 118.802676,-3.4079464 133.54534800000002,8.7125336c14.7418368,12.1206624 -22.5480336,25.376704 -65.038416,26.892751999999998c-42.492192,1.51480464 -87.730452,-1.5597024 -101.460444,-14.0149168c-11.2718592,-10.2271528 3.47087544,-16.6668 32.953686,-21.590384z"/></g><text style="font-weight:bold; font-size: 12px; text-anchor: middle; font-family: arial,helvetica,sans-serif; fill: #333333;" class="svg-txt-center" y="1060" x="2404">MultiplicativeInverse</text></g><g transform="translate(0,0)"><path style="fill:none;stroke:#333333;stroke-width:2;;" d="M2315,1055 C2241.5,1055 2168,1099.5  2168,1144"/><polyline style="fill:#ffffff;stroke:#333333;stroke-width:2;fill-opacity:0;" points="2159,1125 2168,1144 2179,1127"/><text style="font-weight:Normal; font-size: 12px; text-anchor: middle; font-family: sans-serif; fill: #333333;" class="" y="1149" x="2188"/><text style="font-weight:Normal; font-size: 12px; text-anchor: start; font-family: sans-serif; fill: #333333;" class="" y="1082" x="2213"/><text style="font-weight:Normal; font-size: 12px; text-anchor: middle; font-family: sans-serif; fill: #333333;" class="" y="1074" x="2311"/></g><g transform="translate(0,0)"><g transform="matrix(1,0,0,1,2572,1259)"><path style="fill:rgb(204,51,0);stroke:rgb(178,44,0);stroke-width:3.0;;" d="m36.74471214,3.1236c35.222454,-5.9157944 118.119902,-3.4079464 132.777846,8.7125336c14.657113599999999,12.1206624 -22.418447200000003,25.376704 -64.664632,26.892751999999998c-42.247984,1.51480464 -87.226254,-1.5597024 -100.877338,-14.0149168c-11.2070784,-10.2271528 3.45092788,-16.6668 32.764297,-21.590384z"/></g><text style="font-weight:bold; font-size: 12px; text-anchor: middle; font-family: arial,helvetica,sans-serif; fill: #ffffff;" class="svg-txt-center" y="1283" x="2658">SemiringComponent</text></g><g transform="translate(0,0)"><g transform="matrix(1,0,0,1,1969,528)"><path style="fill:none;stroke:#333333;stroke-width:3.0;;" d="m20.1777321,3.1236c19.34181,-5.9157944 64.86353,-3.4079464 72.91269,8.7125336c8.048703999999999,12.1206624 -12.310708,25.376704 -35.509479999999996,26.892751999999998c-23.199759999999998,1.51480464 -47.89881,-1.5597024 -55.39507,-14.0149168c-6.154176,-10.2271528 1.8950182,-16.6668 17.991955,-21.590384z"/></g><text style="font-weight:bold; font-size: 12px; text-anchor: middle; font-family: arial,helvetica,sans-serif; fill: #333333;" class="svg-txt-center" y="552" x="2016">Identity</text></g><g transform="translate(0,0)"><g transform="matrix(1,0,0,1,2745,1153)"><path style="fill:none;stroke:#333333;stroke-width:3.0;;" d="m27.824030580000002,3.1236c26.671338000000002,-5.9157944 89.443394,-3.4079464 100.54276200000001,8.7125336c11.0987392,12.1206624 -16.9758184,25.376704 -48.965704,26.892751999999998c-31.991248000000002,1.51480464 -66.04993800000001,-1.5597024 -76.386886,-14.0149168c-8.4862848,-10.2271528 2.61313036,-16.6668 24.809959000000003,-21.590384z"/></g><text style="font-weight:bold; font-size: 12px; text-anchor: middle; font-family: arial,helvetica,sans-serif; fill: #333333;" class="svg-txt-center" y="1177" x="2810">Commutative</text></g><g transform="translate(0,0)"><path style="fill:none;stroke:#333333;stroke-width:2;;" d="M1700,492 C1637.5,492 1575,558  1575,624"/><polyline style="fill:#ffffff;stroke:#333333;stroke-width:2;fill-opacity:0;" points="1565,606 1575,624 1585,607"/><text style="font-weight:Normal; font-size: 12px; text-anchor: middle; font-family: sans-serif; fill: #333333;" class="" y="624" x="1595"/><text style="font-weight:Normal; font-size: 12px; text-anchor: start; font-family: sans-serif; fill: #333333;" class="" y="533" x="1614"/><text style="font-weight:Normal; font-size: 12px; text-anchor: middle; font-family: sans-serif; fill: #333333;" class="" y="512" x="1701"/></g><g transform="translate(0,0)"><path style="fill:none;stroke:#333333;stroke-width:2;;" d="M2609,940 C2609,1097.5 2658,1097.5  2658,1255"/><polyline style="fill:#ffffff;stroke:#333333;stroke-width:2;fill-opacity:0;" points="2647,1237 2658,1255 2667,1237"/><text style="font-weight:Normal; font-size: 12px; text-anchor: middle; font-family: sans-serif; fill: #333333;" class="" y="1239" x="2669"/><text style="font-weight:Normal; font-size: 12px; text-anchor: start; font-family: sans-serif; fill: #333333;" class="" y="1097" x="2633"/><text style="font-weight:Normal; font-size: 12px; text-anchor: middle; font-family: sans-serif; fill: #333333;" class="" y="950" x="2625"/></g><g transform="translate(0,0)"><path style="fill:none;stroke:#333333;stroke-width:2;;" d="M2168,1188 C2168,1268 2658,1381  2658,1301"/><polyline style="fill:#ffffff;stroke:#333333;stroke-width:2;fill-opacity:0;" points="2661,1320 2658,1301 2643,1314"/><text style="font-weight:Normal; font-size: 12px; text-anchor: middle; font-family: sans-serif; fill: #333333;" class="" y="1281" x="2645"/><text style="font-weight:Normal; font-size: 12px; text-anchor: start; font-family: sans-serif; fill: #333333;" class="" y="1304" x="2413"/><text style="font-weight:Normal; font-size: 12px; text-anchor: middle; font-family: sans-serif; fill: #333333;" class="" y="1176" x="2184"/></g><g transform="translate(0,0)"><path style="fill:none;stroke:#333333;stroke-width:2;;" d="M2743,1172 C2700.5,1172 2658,1213.5  2658,1255"/><polyline style="fill:#ffffff;stroke:#333333;stroke-width:2;fill-opacity:0;" points="2648,1237 2658,1255 2668,1238"/><text style="font-weight:Normal; font-size: 12px; text-anchor: middle; font-family: sans-serif; fill: #333333;" class="" y="1255" x="2679"/><text style="font-weight:Normal; font-size: 12px; text-anchor: start; font-family: sans-serif; fill: #333333;" class="" y="1197" x="2684"/><text style="font-weight:Normal; font-size: 12px; text-anchor: middle; font-family: sans-serif; fill: #333333;" class="" y="1191" x="2744"/></g><g transform="translate(0,0)"><g transform="matrix(1,0,0,1,2902,1444)"><path style="fill:rgb(204,51,0);stroke:rgb(178,44,0);stroke-width:3.0;;" d="m31.009988279999998,3.1236c29.725308,-5.9157944 99.68500399999999,-3.4079464 112.05529200000001,8.7125336c12.3695872,12.1206624 -18.9196144,25.376704 -54.572464,26.892751999999998c-35.654368,1.51480464 -73.612908,-1.5597024 -85.133476,-14.0149168c-9.4579968,-10.2271528 2.9123437599999997,-16.6668 27.650794,-21.590384z"/></g><text style="font-weight:bold; font-size: 12px; text-anchor: middle; font-family: arial,helvetica,sans-serif; fill: #ffffff;" class="svg-txt-center" y="1468" x="2975">RingComponent</text></g><g transform="translate(0,0)"><path style="fill:none;stroke:#333333;stroke-width:2;;" d="M2658,1299 C2658,1369.5 2975,1369.5  2975,1440"/><polyline style="fill:#ffffff;stroke:#333333;stroke-width:2;fill-opacity:0;" points="2961,1425 2975,1440 2980,1420"/><text style="font-weight:Normal; font-size: 12px; text-anchor: middle; font-family: sans-serif; fill: #333333;" class="" y="1422" x="2966"/><text style="font-weight:Normal; font-size: 12px; text-anchor: start; font-family: sans-serif; fill: #333333;" class="" y="1369" x="2816"/><text style="font-weight:Normal; font-size: 12px; text-anchor: middle; font-family: sans-serif; fill: #333333;" class="" y="1290" x="2676"/></g><g transform="translate(0,0)"><path style="fill:none;stroke:#333333;stroke-width:2;;" d="M2912,1107 C2912,1273.5 2975,1273.5  2975,1440"/><polyline style="fill:#ffffff;stroke:#333333;stroke-width:2;fill-opacity:0;" points="2964,1422 2975,1440 2984,1422"/><text style="font-weight:Normal; font-size: 12px; text-anchor: middle; font-family: sans-serif; fill: #333333;" class="" y="1424" x="2986"/><text style="font-weight:Normal; font-size: 12px; text-anchor: start; font-family: sans-serif; fill: #333333;" class="" y="1273" x="2943"/><text style="font-weight:Normal; font-size: 12px; text-anchor: middle; font-family: sans-serif; fill: #333333;" class="" y="1117" x="2928"/></g><g transform="translate(0,0)"><path style="fill:none;stroke:#333333;stroke-width:2;;" d="M2016,568 C2016,608 1933,608  1933,648"/><polyline style="fill:#ffffff;stroke:#333333;stroke-width:2;fill-opacity:0;" points="1924,629 1933,648 1944,631"/><text style="font-weight:Normal; font-size: 12px; text-anchor: middle; font-family: sans-serif; fill: #333333;" class="" y="648" x="1954"/><text style="font-weight:Normal; font-size: 12px; text-anchor: start; font-family: sans-serif; fill: #333333;" class="" y="608" x="1974"/><text style="font-weight:Normal; font-size: 12px; text-anchor: middle; font-family: sans-serif; fill: #333333;" class="" y="587" x="2017"/></g><g transform="translate(0,0)"><g transform="matrix(1,0,0,1,1385,425)"><path style="fill:none;stroke:#333333;stroke-width:3.0;;" d="m23.151292620000003,3.1236c22.192182000000003,-5.9157944 74.42236600000001,-3.4079464 83.65771800000002,8.7125336c9.2348288,12.1206624 -14.124917600000002,25.376704 -40.742456000000004,26.892751999999998c-26.618672,1.51480464 -54.95758200000001,-1.5597024 -63.55855400000001,-14.0149168c-7.061107200000001,-10.2271528 2.1742840400000003,-16.6668 20.643401,-21.590384z"/></g><text style="font-weight:bold; font-size: 12px; text-anchor: middle; font-family: arial,helvetica,sans-serif; fill: #333333;" class="svg-txt-center" y="449" x="1439">Operation</text></g><g transform="translate(0,0)"><path style="fill:none;stroke:#333333;stroke-width:2;;" d="M1439,465 C1439,544.5 1515,544.5  1515,624"/><polyline style="fill:#ffffff;stroke:#333333;stroke-width:2;fill-opacity:0;" points="1504,607 1515,624 1524,606"/><text style="font-weight:Normal; font-size: 12px; text-anchor: middle; font-family: sans-serif; fill: #333333;" class="" y="605" x="1521"/><text style="font-weight:Normal; font-size: 12px; text-anchor: start; font-family: sans-serif; fill: #333333;" class="" y="544" x="1477"/><text style="font-weight:Normal; font-size: 12px; text-anchor: middle; font-family: sans-serif; fill: #333333;" class="" y="470" x="1457"/></g><text style="font-weight:Normal; font-size: 16px; text-anchor: end; font-family: Arial; fill: #ccc;" y="1482" x="3188">www.sketchboard.io</text></svg>